<svg id="abode-logo" viewBox="0 0 184 56" fill="none" xmlns="http://www.w3.org/2000/svg">
<path d="M27.4754 16.1469H12.503C11.8223 16.1469 11.4082 15.3223 11.7699 14.6883L19.2574 1.52264C19.3273 1.38879 19.4324 1.27667 19.5614 1.19843C19.6904 1.12019 19.8384 1.07883 19.9892 1.07883C20.14 1.07883 20.288 1.12019 20.417 1.19843C20.546 1.27667 20.6512 1.38879 20.7211 1.52264L28.2085 14.6883C28.5607 15.3223 28.1561 16.1469 27.4754 16.1469Z" fill="#0693A5"/>
<path d="M33.8848 26.4645H6.09134C5.41304 26.4645 4.99893 25.6399 5.36068 25.0059L9.52089 17.6818H30.4647L34.6297 25.0059C34.9867 25.6399 34.5654 26.4645 33.8848 26.4645Z" fill="#F26B34"/>
<path d="M1.19106 39.1631C0.931941 39.159 0.681245 39.0702 0.477066 38.9104C0.266726 38.7511 0.115989 38.5256 0.0490827 38.2701C-0.0178237 38.0146 0.00298645 37.7441 0.108168 37.5019L3.9209 28.4856C4.01396 28.2721 4.16749 28.0905 4.36249 27.9634C4.55749 27.8364 4.78542 27.7693 5.01807 27.7706H12.7816C13.0328 27.767 13.2786 27.8432 13.484 27.9881C13.6893 28.133 13.8436 28.3393 13.9247 28.5774C14.0058 28.8155 14.0095 29.0732 13.9355 29.3136C13.8614 29.554 13.7132 29.7647 13.5122 29.9156L1.92409 38.908C1.71507 39.0727 1.457 39.1625 1.19106 39.1631V39.1631ZM5.01807 28.2473C4.87792 28.2474 4.7409 28.2888 4.62409 28.3664C4.50729 28.4439 4.41586 28.5542 4.3612 28.6834L0.536565 37.6878C0.472172 37.833 0.459005 37.9959 0.499224 38.1496C0.539444 38.3034 0.630661 38.4389 0.757904 38.5339C0.88191 38.6331 1.03591 38.6871 1.19463 38.6871C1.35335 38.6871 1.50735 38.6331 1.63136 38.5339L13.2195 29.52C13.3343 29.4278 13.4178 29.3024 13.4587 29.1608C13.4995 29.0193 13.4957 28.8686 13.4478 28.7293C13.3999 28.59 13.3101 28.4689 13.1909 28.3827C13.0716 28.2964 12.9287 28.2491 12.7816 28.2473H5.01807Z" fill="#0693A5"/>
<path d="M38.9233 39.1631C38.659 39.1614 38.4027 39.0717 38.195 38.9081L26.6069 29.8942C26.406 29.7434 26.258 29.5329 26.1838 29.2927C26.1097 29.0526 26.1133 28.7951 26.1941 28.5572C26.2749 28.3192 26.4287 28.1129 26.6337 27.9678C26.8386 27.8226 27.0841 27.7461 27.3351 27.7492H35.101C35.3346 27.7494 35.563 27.8184 35.7576 27.9477C35.9523 28.0769 36.1047 28.2607 36.1958 28.4761L40.0204 37.49C40.0997 37.6718 40.1324 37.8706 40.1154 38.0683C40.0985 38.266 40.0326 38.4564 39.9236 38.6221C39.8146 38.7878 39.6661 38.9237 39.4914 39.0173C39.3167 39.1109 39.1214 39.1594 38.9233 39.1583V39.1631ZM27.3351 28.2473C27.1863 28.2473 27.0411 28.2938 26.92 28.3805C26.7988 28.4671 26.7078 28.5895 26.6595 28.7305C26.6113 28.8716 26.6082 29.0242 26.6509 29.167C26.6935 29.3098 26.7796 29.4358 26.8972 29.5272L38.4853 38.541C38.6101 38.639 38.7638 38.6926 38.9223 38.6935C39.0809 38.6943 39.2352 38.6423 39.3609 38.5456C39.4866 38.4489 39.5766 38.313 39.6168 38.1595C39.6569 38.0059 39.6448 37.8433 39.5825 37.6973L35.7579 28.6834C35.7032 28.5542 35.6118 28.4439 35.495 28.3664C35.3782 28.2888 35.2412 28.2474 35.101 28.2473H27.3351Z" fill="#0693A5"/>
<path d="M88.4863 10.4436C85.4982 10.4436 82.5772 11.3309 80.0927 12.9934C77.6082 14.6558 75.6717 17.0187 74.5282 19.7833C73.3847 22.5479 73.0855 25.5899 73.6685 28.5248C74.2514 31.4596 75.6903 34.1555 77.8032 36.2714C79.9162 38.3873 82.6082 39.8282 85.5389 40.412C88.4695 40.9958 91.5073 40.6962 94.2679 39.5511C97.0286 38.4059 99.3882 36.4667 101.048 33.9787C102.708 31.4906 103.594 28.5655 103.594 25.5731C103.594 23.5863 103.204 21.6189 102.444 19.7833C101.685 17.9477 100.572 16.2798 99.1694 14.8749C97.7664 13.47 96.1009 12.3556 94.2679 11.5952C92.4349 10.8349 90.4703 10.4436 88.4863 10.4436V10.4436ZM88.4863 32.3204C87.1537 32.3204 85.851 31.9247 84.743 31.1833C83.635 30.4419 82.7714 29.3881 82.2615 28.1552C81.7515 26.9223 81.6181 25.5657 81.878 24.2568C82.138 22.948 82.7797 21.7457 83.722 20.8021C84.6643 19.8585 85.8649 19.2158 87.1718 18.9555C88.4788 18.6952 89.8336 18.8288 91.0647 19.3395C92.2959 19.8501 93.3482 20.715 94.0885 21.8246C94.8289 22.9341 95.224 24.2387 95.224 25.5731C95.224 26.4592 95.0498 27.3366 94.7112 28.1552C94.3726 28.9738 93.8763 29.7177 93.2506 30.3442C92.6249 30.9708 91.8822 31.4678 91.0647 31.8068C90.2473 32.1459 89.3711 32.3204 88.4863 32.3204Z" fill="#0693A5"/>
<path d="M55.7829 10.4436C53.4435 10.4434 51.1364 10.9902 49.0452 12.0404V1.07697H40.6748V25.5731C40.6748 28.5655 41.5609 31.4906 43.221 33.9787C44.8811 36.4667 47.2407 38.4059 50.0013 39.5511C52.762 40.6962 55.7997 40.9958 58.7304 40.412C61.6611 39.8282 64.3531 38.3873 66.466 36.2714C68.5789 34.1555 70.0178 31.4596 70.6008 28.5248C71.1837 25.5899 70.8845 22.5479 69.741 19.7833C68.5975 17.0187 66.6611 14.6558 64.1766 12.9934C61.692 11.3309 58.771 10.4436 55.7829 10.4436V10.4436ZM55.7829 32.3204C54.4503 32.3204 53.1477 31.9247 52.0397 31.1833C50.9316 30.4419 50.068 29.3881 49.5581 28.1552C49.0481 26.9223 48.9147 25.5657 49.1747 24.2568C49.4346 22.948 50.0763 21.7457 51.0186 20.8021C51.9609 19.8585 53.1615 19.2158 54.4685 18.9555C55.7755 18.6952 57.1302 18.8288 58.3613 19.3395C59.5925 19.8501 60.6448 20.715 61.3852 21.8246C62.1255 22.9341 62.5207 24.2387 62.5207 25.5731C62.52 27.3624 61.81 29.0783 60.5465 30.3435C59.2831 31.6087 57.5697 32.3198 55.7829 32.3204V32.3204Z" fill="#0693A5"/>
<path d="M127.925 1.07697V12.0404C124.983 10.5723 121.644 10.1046 118.413 10.7085C115.182 11.3123 112.236 12.9546 110.021 15.3865C107.806 17.8183 106.443 20.9071 106.139 24.1844C105.835 27.4618 106.607 30.749 108.337 33.5477C110.066 36.3464 112.66 38.5039 115.725 39.6932C118.79 40.8825 122.158 41.0387 125.32 40.1381C128.481 39.2375 131.263 37.3292 133.244 34.7025C135.224 32.0759 136.296 28.8741 136.295 25.5827V1.07697H127.925ZM121.187 32.3204C119.855 32.3204 118.552 31.9247 117.444 31.1833C116.336 30.4419 115.472 29.3881 114.963 28.1552C114.453 26.9223 114.319 25.5657 114.579 24.2568C114.839 22.948 115.481 21.7457 116.423 20.8021C117.365 19.8585 118.566 19.2158 119.873 18.9555C121.18 18.6952 122.535 18.8288 123.766 19.3395C124.997 19.8501 126.049 20.715 126.79 21.8246C127.53 22.9341 127.925 24.2387 127.925 25.5731C127.924 27.3624 127.214 29.0783 125.951 30.3435C124.688 31.6087 122.974 32.3198 121.187 32.3204V32.3204Z" fill="#0693A5"/>
<path d="M168.996 25.5731C168.996 22.1531 167.839 18.8339 165.714 16.1569C163.588 13.48 160.619 11.6032 157.292 10.8327C153.965 10.0622 150.475 10.4434 147.391 11.9141C144.308 13.3848 141.813 15.8583 140.314 18.9312C138.814 22.0041 138.399 25.495 139.135 28.8347C139.871 32.1744 141.716 35.1657 144.368 37.3209C147.019 39.4761 150.322 40.668 153.737 40.7021C157.152 40.7363 160.478 39.6107 163.172 37.509L158.413 30.571C157.501 31.3989 156.381 31.961 155.174 32.1964C153.966 32.4318 152.717 32.3315 151.562 31.9064C150.408 31.4812 149.391 30.7475 148.624 29.7848C147.856 28.8221 147.366 27.6672 147.208 26.4454H168.98C168.98 26.1571 168.996 25.8639 168.996 25.5731ZM148.386 21.6859C149.008 20.8031 149.832 20.0828 150.79 19.5857C151.748 19.0885 152.811 18.829 153.889 18.829C154.968 18.829 156.031 19.0885 156.989 19.5857C157.947 20.0828 158.771 20.8031 159.393 21.6859H148.386Z" fill="#0693A5"/>
<path d="M34.0347 51.2133C34.3155 51.8235 34.8939 52.1667 35.6555 52.1667C36.4551 52.1667 36.943 51.802 36.943 51.23C36.943 50.7938 36.6622 50.515 35.991 50.3601L35.1319 50.1551C34.1418 49.9168 33.6468 49.4401 33.6468 48.7251C33.6468 47.848 34.3846 47.2236 35.565 47.2236C36.517 47.2236 37.231 47.6192 37.5 48.2008L36.9692 48.5058C36.7193 48.072 36.2076 47.8194 35.5412 47.8194C34.7796 47.8194 34.3227 48.1483 34.3227 48.7036C34.3227 49.1303 34.5892 49.3829 35.2747 49.5426L36.1362 49.7499C37.1644 49.9883 37.6118 50.4649 37.6118 51.18C37.6118 52.1118 36.874 52.7506 35.6245 52.7506C34.5512 52.7506 33.7753 52.293 33.4825 51.5089L34.0347 51.2133Z" fill="#1E1E1E"/>
<path d="M43.1691 47.3141V52.6529H42.4979V50.2361H39.4516V52.6624H38.7947V47.3141H39.4635V49.6022H42.5098V47.3141H43.1691Z" fill="#1E1E1E"/>
<path d="M47.9528 51.2133H45.3919L44.8231 52.6624H44.1282L46.2987 47.3237H47.046L49.2166 52.6624H48.524L47.9528 51.2133ZM47.7148 50.6032L46.6795 47.9815L45.6442 50.6032H47.7148Z" fill="#1E1E1E"/>
<path d="M51.7132 50.5412H50.8469V52.6624H50.1758V47.3141H52.3844C53.503 47.3141 54.167 47.9314 54.167 48.9372C54.167 49.8906 53.5577 50.4793 52.501 50.5317L54.2765 52.6529H53.4697L51.7132 50.5412ZM50.8469 49.9358H52.332C53.1317 49.9358 53.4649 49.6236 53.4649 48.9444C53.4649 48.2651 53.1222 47.9386 52.332 47.9386H50.8469V49.9358Z" fill="#1E1E1E"/>
<path d="M59.2006 52.0427V52.6624H55.476V47.3141H59.1245V47.9314H56.1471V49.6546H58.9721V50.2647H56.1471V52.0332L59.2006 52.0427Z" fill="#1E1E1E"/>
<path d="M62.5946 52.6624H60.5692V47.3141H62.5946C64.1392 47.3141 65.2126 48.3271 65.2126 49.9835C65.2126 51.6399 64.1273 52.6624 62.5946 52.6624ZM62.5946 47.9481H61.238V52.0356H62.5946C63.7846 52.0356 64.5128 51.2967 64.5128 49.993C64.5128 48.6893 63.7846 47.9481 62.5946 47.9481Z" fill="#1E1E1E"/>
<path d="M70.4103 50.6246H68.9038V52.6624H68.2327V47.3141H70.4103C71.5456 47.3141 72.2072 47.9386 72.2072 48.9682C72.2072 49.9978 71.5456 50.6246 70.4103 50.6246ZM70.358 47.941H68.9038V50.0145H70.358C71.1719 50.0145 71.5075 49.7023 71.5075 48.9777C71.5075 48.2532 71.1624 47.941 70.358 47.941V47.941Z" fill="#1E1E1E"/>
<path d="M74.9037 50.5412H74.0374V52.6624H73.3662V47.3141H75.5748C76.6934 47.3141 77.3574 47.9314 77.3574 48.9372C77.3574 49.8906 76.7482 50.4793 75.7033 50.5317L77.4788 52.6529H76.672L74.9037 50.5412ZM74.0374 49.9358H75.5201C76.3221 49.9358 76.6553 49.6236 76.6553 48.9444C76.6553 48.2651 76.3126 47.9386 75.5201 47.9386H74.0374V49.9358Z" fill="#1E1E1E"/>
<path d="M81.0727 47.2164C81.623 47.207 82.1637 47.3617 82.6259 47.661C83.088 47.9603 83.4508 48.3906 83.668 48.897C83.8852 49.4035 83.9469 49.9632 83.8454 50.5049C83.7438 51.0466 83.4836 51.5458 83.0978 51.9389C82.712 52.332 82.2181 52.6012 81.679 52.7123C81.1399 52.8233 80.5799 52.7712 80.0705 52.5625C79.5611 52.3538 79.1252 51.9981 78.8184 51.5405C78.5116 51.0829 78.3477 50.5442 78.3476 49.993C78.3353 49.6291 78.397 49.2665 78.529 48.9272C78.661 48.5879 78.8604 48.279 79.1153 48.0193C79.3702 47.7596 79.6752 47.5545 80.0116 47.4165C80.3481 47.2785 80.7091 47.2104 81.0727 47.2164V47.2164ZM81.0727 47.8409C79.8827 47.8409 79.0473 48.7656 79.0473 49.9859C79.0473 51.2062 79.8779 52.1309 81.0727 52.1309C82.2674 52.1309 83.098 51.2085 83.098 49.9859C83.098 48.7632 82.2698 47.8409 81.0727 47.8409Z" fill="#1E1E1E"/>
<path d="M85.1781 51.2133C85.4614 51.8235 86.0397 52.1667 86.8013 52.1667C87.601 52.1667 88.0865 51.802 88.0865 51.23C88.0865 50.7938 87.8056 50.515 87.1345 50.3601L86.2729 50.1551C85.2828 49.9168 84.7878 49.4401 84.7878 48.7251C84.7878 47.848 85.528 47.2236 86.7061 47.2236C87.6581 47.2236 88.3721 47.6192 88.641 48.2008L88.1245 48.5058C87.8865 48.072 87.363 47.8194 86.6966 47.8194C85.935 47.8194 85.478 48.1483 85.478 48.7036C85.478 49.1303 85.7446 49.3829 86.43 49.5426L87.2916 49.7499C88.3197 49.9883 88.7695 50.4649 88.7695 51.18C88.7695 52.1118 88.0294 52.7506 86.7822 52.7506C85.7065 52.7506 84.9306 52.293 84.626 51.5089L85.1781 51.2133Z" fill="#1E1E1E"/>
<path d="M92.1063 50.6246H90.5997V52.6624H89.9286V47.3141H92.1063C93.2415 47.3141 93.9032 47.9386 93.9032 48.9682C93.9032 49.9978 93.251 50.6246 92.1063 50.6246ZM92.0539 47.941H90.5997V50.0145H92.0539C92.8679 50.0145 93.2034 49.7023 93.2034 48.9777C93.2034 48.2532 92.8774 47.941 92.0634 47.941H92.0539Z" fill="#1E1E1E"/>
<path d="M98.7964 52.0427V52.6624H95.0718V47.3141H98.7203V47.9314H95.7406V49.6546H98.568V50.2647H95.7406V52.0332L98.7964 52.0427Z" fill="#1E1E1E"/>
<path d="M101.69 50.5412H100.822V52.6624H100.151V47.3141H102.359C103.48 47.3141 104.142 47.9314 104.142 48.9372C104.142 49.8906 103.533 50.4793 102.49 50.5317L104.263 52.6529H103.456L101.69 50.5412ZM100.822 49.9358H102.307C103.107 49.9358 103.442 49.6236 103.442 48.9444C103.442 48.2651 103.099 47.9386 102.307 47.9386H100.822V49.9358Z" fill="#1E1E1E"/>
<path d="M105.468 47.3141H106.148V52.6529H105.479L105.468 47.3141Z" fill="#1E1E1E"/>
<path d="M108.926 47.9481H107.143V47.3141H111.384V47.9386H109.601V52.6529H108.933L108.926 47.9481Z" fill="#1E1E1E"/>
<path d="M116.632 47.3141L114.576 50.4411V52.6529H113.905V50.4411L111.86 47.3141H112.615L114.24 49.8548L115.878 47.3141H116.632Z" fill="#1E1E1E"/>
</svg>
